HIERARCHY
ROOT hip
{
  OFFSET 5.70873 43.8894 -1.52928
  CHANNELS 6 Xposition Yposition Zposition Zrotation Xrotation Yrotation
  JOINT abdomen
  {
    OFFSET 0 5.99393 0.287273
    CHANNELS 6 Xposition Yposition Zposition Zrotation Xrotation Yrotation
    JOINT chest
    {
      OFFSET 0 6.65865 -0.856112
      CHANNELS 6 Xposition Yposition Zposition Zrotation Xrotation Yrotation
      JOINT neck
      {
        OFFSET 0 8.65624 -1.42685
        CHANNELS 6 Xposition Yposition Zposition Zrotation Xrotation Yrotation
        JOINT head
        {
          OFFSET 0 3.80999 -0.190247
          CHANNELS 6 Xposition Yposition Zposition Zrotation Xrotation Yrotation
          End Site
          {
            OFFSET 0 0 0
          }
        }
      }
      JOINT rCollar
      {
        OFFSET -1.4963 7.5744 -1.52136
        CHANNELS 6 Xposition Yposition Zposition Zrotation Xrotation Yrotation
        JOINT rShldr
        {
          OFFSET -5.47506 -0.905672 0.485692
          CHANNELS 6 Xposition Yposition Zposition Zrotation Xrotation Yrotation
          JOINT rForeArm
          {
            OFFSET -11.3069 -0.201091 0.618544
            CHANNELS 6 Xposition Yposition Zposition Zrotation Xrotation Yrotation
            JOINT rHand
            {
              OFFSET -9.61414 -0.254739 3.48553
              CHANNELS 6 Xposition Yposition Zposition Zrotation Xrotation Yrotation
              JOINT rThumb1
              {
                OFFSET 0.176263 -0.07068 1.26622
                CHANNELS 6 Xposition Yposition Zposition Zrotation Xrotation Yrotation
                JOINT rThumb2
                {
                  OFFSET -1.04683 -0.546484 1.82182
                  CHANNELS 6 Xposition Yposition Zposition Zrotation Xrotation Yrotation
                  JOINT rThumb3
                  {
                    OFFSET -0.993472 -0.621916 0.655506
                    CHANNELS 6 Xposition Yposition Zposition Zrotation Xrotation Yrotation
                    End Site
                    {
                      OFFSET -0.996134 -0.66263 0.644615
                    }
                  }
                }
              }
              JOINT rIndex1
              {
                OFFSET -2.64253 0.566363 2.4162
                CHANNELS 6 Xposition Yposition Zposition Zrotation Xrotation Yrotation
                JOINT rIndex2
                {
                  OFFSET -1.39394 -0.635138 0.899356
                  CHANNELS 6 Xposition Yposition Zposition Zrotation Xrotation Yrotation
                  JOINT rIndex3
                  {
                    OFFSET -0.622395 -0.856016 0.402182
                    CHANNELS 6 Xposition Yposition Zposition Zrotation Xrotation Yrotation
                    End Site
                    {
                      OFFSET -0.472476 -0.801802 0.34216
                    }
                  }
                }
              }
              JOINT rMid1
              {
                OFFSET -3.20814 0.514427 1.52547
                CHANNELS 6 Xposition Yposition Zposition Zrotation Xrotation Yrotation
                JOINT rMid2
                {
                  OFFSET -1.56545 -0.497974 0.68919
                  CHANNELS 6 Xposition Yposition Zposition Zrotation Xrotation Yrotation
                  JOINT rMid3
                  {
                    OFFSET -0.679943 -1.17582 0.444246
                    CHANNELS 6 Xposition Yposition Zposition Zrotation Xrotation Yrotation
                    End Site
                    {
                      OFFSET -0.343874 -0.941341 0.267611
                    }
                  }
                }
              }
              JOINT rRing1
              {
                OFFSET -3.47877 0.200518 0.597719
                CHANNELS 6 Xposition Yposition Zposition Zrotation Xrotation Yrotation
                JOINT rRing2
                {
                  OFFSET -1.28208 -0.53155 0.44672
                  CHANNELS 6 Xposition Yposition Zposition Zrotation Xrotation Yrotation
                  JOINT rRing3
                  {
                    OFFSET -0.710288 -0.970167 0.4032
                    CHANNELS 6 Xposition Yposition Zposition Zrotation Xrotation Yrotation
                    End Site
                    {
                      OFFSET -0.403228 -0.950952 0.378354
                    }
                  }
                }
              }
              JOINT rPinky1
              {
                OFFSET -3.42483 -0.278904 -0.240415
                CHANNELS 6 Xposition Yposition Zposition Zrotation Xrotation Yrotation
                JOINT rPinky2
                {
                  OFFSET -1.05787 -0.635999 0.156459
                  CHANNELS 6 Xposition Yposition Zposition Zrotation Xrotation Yrotation
                  JOINT rPinky3
                  {
                    OFFSET -0.42815 -0.754232 0.287187
                    CHANNELS 6 Xposition Yposition Zposition Zrotation Xrotation Yrotation
                    End Site
                    {
                      OFFSET -0.235717 -0.725605 0.279416
                    }
                  }
                }
              }
            }
          }
        }
      }
      JOINT lCollar
      {
        OFFSET 1.4963 7.5744 -1.52136
        CHANNELS 6 Xposition Yposition Zposition Zrotation Xrotation Yrotation
        JOINT lShldr
        {
          OFFSET 5.47506 -0.905672 0.485692
          CHANNELS 6 Xposition Yposition Zposition Zrotation Xrotation Yrotation
          JOINT lForeArm
          {
            OFFSET 11.3069 -0.201091 0.618544
            CHANNELS 6 Xposition Yposition Zposition Zrotation Xrotation Yrotation
            JOINT lHand
            {
              OFFSET 9.61414 -0.254739 3.48553
              CHANNELS 6 Xposition Yposition Zposition Zrotation Xrotation Yrotation
              JOINT lThumb1
              {
                OFFSET -0.176263 -0.07068 1.26622
                CHANNELS 6 Xposition Yposition Zposition Zrotation Xrotation Yrotation
                JOINT lThumb2
                {
                  OFFSET 1.04683 -0.546484 1.82182
                  CHANNELS 6 Xposition Yposition Zposition Zrotation Xrotation Yrotation
                  JOINT lThumb3
                  {
                    OFFSET 0.993472 -0.621916 0.655506
                    CHANNELS 6 Xposition Yposition Zposition Zrotation Xrotation Yrotation
                    End Site
                    {
                      OFFSET 0.996134 -0.66263 0.644615
                    }
                  }
                }
              }
              JOINT lIndex1
              {
                OFFSET 2.64253 0.566363 2.4162
                CHANNELS 6 Xposition Yposition Zposition Zrotation Xrotation Yrotation
                JOINT lIndex2
                {
                  OFFSET 1.39394 -0.635138 0.899356
                  CHANNELS 6 Xposition Yposition Zposition Zrotation Xrotation Yrotation
                  JOINT lIndex3
                  {
                    OFFSET 0.622395 -0.856016 0.402182
                    CHANNELS 6 Xposition Yposition Zposition Zrotation Xrotation Yrotation
                    End Site
                    {
                      OFFSET 0.472476 -0.801802 0.34216
                    }
                  }
                }
              }
              JOINT lMid1
              {
                OFFSET 3.20814 0.514427 1.52547
                CHANNELS 6 Xposition Yposition Zposition Zrotation Xrotation Yrotation
                JOINT lMid2
                {
                  OFFSET 1.56545 -0.497974 0.68919
                  CHANNELS 6 Xposition Yposition Zposition Zrotation Xrotation Yrotation
                  JOINT lMid3
                  {
                    OFFSET 0.679943 -1.17582 0.444246
                    CHANNELS 6 Xposition Yposition Zposition Zrotation Xrotation Yrotation
                    End Site
                    {
                      OFFSET 0.343874 -0.941341 0.267611
                    }
                  }
                }
              }
              JOINT lRing1
              {
                OFFSET 3.47877 0.200518 0.597719
                CHANNELS 6 Xposition Yposition Zposition Zrotation Xrotation Yrotation
                JOINT lRing2
                {
                  OFFSET 1.28208 -0.53155 0.44672
                  CHANNELS 6 Xposition Yposition Zposition Zrotation Xrotation Yrotation
                  JOINT lRing3
                  {
                    OFFSET 0.710288 -0.970167 0.4032
                    CHANNELS 6 Xposition Yposition Zposition Zrotation Xrotation Yrotation
                    End Site
                    {
                      OFFSET 0.403228 -0.950952 0.378354
                    }
                  }
                }
              }
              JOINT lPinky1
              {
                OFFSET 3.42483 -0.278904 -0.240415
                CHANNELS 6 Xposition Yposition Zposition Zrotation Xrotation Yrotation
                JOINT lPinky2
                {
                  OFFSET 1.05787 -0.635999 0.156459
                  CHANNELS 6 Xposition Yposition Zposition Zrotation Xrotation Yrotation
                  JOINT lPinky3
                  {
                    OFFSET 0.42815 -0.754232 0.287187
                    CHANNELS 6 Xposition Yposition Zposition Zrotation Xrotation Yrotation
                    End Site
                    {
                      OFFSET 0.235717 -0.725605 0.279416
                    }
                  }
                }
              }
            }
          }
        }
      }
    }
  }
  JOINT rThigh
  {
    OFFSET -4.17848 -1.02486 0.046356
    CHANNELS 6 Xposition Yposition Zposition Zrotation Xrotation Yrotation
    JOINT rShin
    {
      OFFSET 1.27155 -17.465 -0.237699
      CHANNELS 6 Xposition Yposition Zposition Zrotation Xrotation Yrotation
      JOINT rFoot
      {
        OFFSET 0.529163 -17.3815 -1.19582
        CHANNELS 6 Xposition Yposition Zposition Zrotation Xrotation Yrotation
        JOINT rToe
        {
          OFFSET -0.711591 -4.4863 4.0596
          CHANNELS 6 Xposition Yposition Zposition Zrotation Xrotation Yrotation
          End Site
          {
            OFFSET -0.869915 -1.10655 1.99006
          }
        }
      }
    }
  }
  JOINT lThigh
  {
    OFFSET 4.17848 -1.02486 0.046356
    CHANNELS 6 Xposition Yposition Zposition Zrotation Xrotation Yrotation
    JOINT lShin
    {
      OFFSET -1.27155 -17.465 -0.237699
      CHANNELS 6 Xposition Yposition Zposition Zrotation Xrotation Yrotation
      JOINT lFoot
      {
        OFFSET -0.529163 -17.3815 -1.19582
        CHANNELS 6 Xposition Yposition Zposition Zrotation Xrotation Yrotation
        JOINT lToe
        {
          OFFSET 0.711591 -4.4863 4.0596
          CHANNELS 6 Xposition Yposition Zposition Zrotation Xrotation Yrotation
          End Site
          {
            OFFSET 0.869915 -1.10655 1.99006
          }
        }
      }
    }
  }
}
MOTION
Frames:	4
Frame Time:	0.0333333
1.00817 40.1529 -0.158383 8.39888 -6.53212 -8.50998 0 5.99393 0.287273 9.03927 10.6132 -7.87215 0 6.65865 -0.856112 19.9506 19.7132 -17.7741 3.55271e-015 8.65624 -1.42685 -3.552 -5.92268 -37.837 -2.22045e-016 3.80999 -0.190247 -6.40027 -2.44121 -32.1734 -1.4963 7.5744 -1.52136 -12.9848 -0.15662 -4.20591 -5.47506 -0.905672 0.485692 57.5097 -2.64428 9.27485 -11.3069 -0.201091 0.618544 15.6626 25.4087 5.27718 -9.61414 -0.254739 3.48553 -32.4157 50.4383 19.6936 0.176263 -0.07068 1.26622 2.91692 -2.65898 8.19548 -1.04683 -0.546484 1.82182 -0.883042 0.973767 -2.69653 -0.993472 -0.621916 0.655506 1.40995 -1.38185 4.08 -2.64253 0.566363 2.4162 -4.50701 -2.14982 7.55319 -1.39394 -0.635138 0.899356 -2.59847 -0.701604 0.367205 -0.622395 -0.856016 0.402182 -4.16207 -1.13143 0.572499 -3.20814 0.514427 1.52547 -9.09628 -2.88477 1.02455 -1.56545 -0.497974 0.68919 -9.08629 -2.88968 1.06959 -0.679943 -1.17582 0.444246 -9.08622 -2.88985 1.06946 -3.47877 0.200518 0.597719 -13.6371 -4.96879 1.93664 -1.28208 -0.53155 0.44672 -13.617 -4.98983 1.91683 -0.710288 -0.970167 0.4032 -13.6279 -4.9939 1.9184 -3.42483 -0.278904 -0.240415 -25.9779 -0.625836 -5.58296 -1.05787 -0.635999 0.156459 -13.5404 -5.32539 1.67601 -0.42815 -0.754232 0.287187 -13.5335 -5.32241 1.67527 1.4963 7.5744 -1.52136 14.164 -1.75976 -0.907329 5.47506 -0.905672 0.485692 -107.43 -10.4715 27.6656 11.3069 -0.201091 0.618544 -21.0017 -34.4311 -30.3054 9.61414 -0.254739 3.48553 5.12726 53.519 4.85225 -0.176263 -0.07068 1.26622 -5.95745 -1.19172 -10.4642 1.04683 -0.546484 1.82182 -2.32281e-006 -1.55997e-005 9.71237e-006 0.993472 -0.621916 0.655506 -3.70256 -0.873549 -6.53346 2.64253 0.566363 2.4162 6.85387 -3.26774 -10.0274 1.39394 -0.635138 0.899356 6.5426 -2.35384 -2.5045 0.622395 -0.856016 0.402182 7.97913 -2.9128 -3.02255 3.20814 0.514427 1.52547 13.1383 -5.64301 -4.70251 1.56545 -0.497974 0.68919 13.1197 -5.64367 -4.74643 0.679943 -1.17582 0.444246 13.1194 -5.64347 -4.74654 3.47877 0.200518 0.597719 12.7047 -6.0216 -5.28506 1.28208 -0.53155 0.44672 12.6973 -6.05004 -5.27043 0.710288 -0.970167 0.4032 12.6969 -6.0498 -5.27062 3.42483 -0.278904 -0.240415 18.7685 -1.43791 3.93628 1.05787 -0.635999 0.156459 12.5969 -6.41838 -5.06423 0.42815 -0.754232 0.287187 12.5972 -6.41863 -5.0642 -4.17848 -1.02486 0.046356 -3.69318 -22.8485 19.618 1.27155 -17.465 -0.237699 15.007 58.2814 -17.6576 0.529163 -17.3815 -1.19582 0.260269 -33.463 -11.6003 -0.711591 -4.4863 4.0596 0.976614 7.02937 -0.248728 4.17848 -1.02486 0.046356 1.67697 -30.9345 -7.54036 -1.27155 -17.465 -0.237699 -2.12151 34.8712 -11.8448 -0.529163 -17.3815 -1.19582 -10.1069 -4.06585 -11.6516 0.711591 -4.4863 4.0596 1.49144 -11.519 0.733292 
0.969742 39.8998 -0.170087 7.61485 -6.94245 -8.28434 0 5.99393 0.287273 8.72637 10.158 -7.53458 -1.77636e-015 6.65865 -0.856112 19.1522 18.9302 -16.9248 0 8.65624 -1.42685 -4.95939 -5.92916 -34.2169 6.66134e-016 3.80999 -0.190247 -6.52538 -1.82164 -28.367 -1.4963 7.5744 -1.52136 -12.3074 -0.482771 -3.91718 -5.47506 -0.905672 0.485692 57.5461 -2.64695 7.62508 -11.3069 -0.201091 0.618544 15.2567 25.871 5.26125 -9.61414 -0.254739 3.48553 -31.6221 50.2837 20.0946 0.176263 -0.07068 1.26622 2.91696 -2.65899 8.19548 -1.04683 -0.546484 1.82182 -0.883042 0.973782 -2.69652 -0.993472 -0.621916 0.655506 1.40996 -1.38183 4.08002 -2.64253 0.566363 2.4162 -4.507 -2.14982 7.55319 -1.39394 -0.635138 0.899356 -2.59846 -0.701604 0.367214 -0.622395 -0.856016 0.402182 -4.16206 -1.13142 0.572508 -3.20814 0.514427 1.52547 -9.04817 -2.86853 1.01726 -1.56545 -0.497974 0.68919 -9.03904 -2.87421 1.06522 -0.679943 -1.17582 0.444246 -9.03864 -2.87427 1.06506 -3.47877 0.200518 0.597719 -13.5896 -4.94885 1.93303 -1.28208 -0.53155 0.44672 -13.5706 -4.97209 1.91232 -0.710288 -0.970167 0.4032 -13.5816 -4.9762 1.91391 -3.42483 -0.278904 -0.240415 -25.9299 -0.605522 -5.58025 -1.05787 -0.635999 0.156459 -13.4941 -5.30652 1.67242 -0.42815 -0.754232 0.287187 -13.4874 -5.30365 1.67171 1.4963 7.5744 -1.52136 14.0834 -1.75949 -0.91562 5.47506 -0.905672 0.485692 -104.678 -11.3496 28.9927 11.3069 -0.201091 0.618544 -20.5262 -33.004 -29.2467 9.61414 -0.254739 3.48553 4.3136 53.4741 6.14179 -0.176263 -0.07068 1.26622 -5.95743 -1.19171 -10.4642 1.04683 -0.546484 1.82182 -9.20066e-006 -1.30619e-005 1.13316e-006 0.993472 -0.621916 0.655506 -3.70254 -0.873561 -6.53345 2.64253 0.566363 2.4162 6.83603 -3.26266 -10.0187 1.39394 -0.635138 0.899356 6.52463 -2.34695 -2.49795 0.622395 -0.856016 0.402182 7.96125 -2.90575 -3.01615 3.20814 0.514427 1.52547 13.0963 -5.62251 -4.68623 1.56545 -0.497974 0.68919 13.0769 -5.6233 -4.73286 0.679943 -1.17582 0.444246 13.0771 -5.62337 -4.73316 3.47877 0.200518 0.597719 12.6636 -5.99791 -5.27056 1.28208 -0.53155 0.44672 12.656 -6.02821 -5.2552 0.710288 -0.970167 0.4032 12.6559 -6.02807 -5.25548 3.42483 -0.278904 -0.240415 18.7259 -1.41202 3.9465 1.05787 -0.635999 0.156459 12.5562 -6.39556 -5.04989 0.42815 -0.754232 0.287187 12.5562 -6.39565 -5.04976 -4.17848 -1.02486 0.046356 -2.96749 -22.8351 19.3169 1.27155 -17.465 -0.237699 15.9796 59.4074 -18.5287 0.529163 -17.3815 -1.19582 0.101447 -34.1585 -11.5254 -0.711591 -4.4863 4.0596 0.979848 7.05077 -0.249706 4.17848 -1.02486 0.046356 2.12337 -31.9626 -8.02208 -1.27155 -17.465 -0.237699 -2.13622 37.638 -12.0768 -0.529163 -17.3815 -1.19582 -10.0341 -5.30659 -11.624 0.711591 -4.4863 4.0596 1.50048 -11.5855 0.738359 
0.947553 39.5393 -0.185499 6.41827 -7.5154 -8.21725 1.77636e-015 5.99393 0.287273 8.25324 9.53587 -7.08294 0 6.65865 -0.856112 17.9861 17.8543 -15.792 0 8.65624 -1.42685 -6.55714 -6.55102 -28.413 0 3.80999 -0.190247 -6.44191 -0.977222 -22.6627 -1.4963 7.5744 -1.52136 -11.3704 -0.954732 -3.43734 -5.47506 -0.905672 0.485692 57.5988 -2.65755 5.62021 -11.3069 -0.201091 0.618544 14.8795 26.3905 4.87092 -9.61414 -0.254739 3.48553 -30.6476 50.333 21.206 0.176263 -0.07068 1.26622 2.91696 -2.65905 8.19546 -1.04683 -0.546484 1.82182 -0.883045 0.973785 -2.69651 -0.993472 -0.621916 0.655506 1.40995 -1.38185 4.08002 -2.64253 0.566363 2.4162 -4.50701 -2.14981 7.5532 -1.39394 -0.635138 0.899356 -2.59847 -0.701602 0.367208 -0.622395 -0.856016 0.402182 -4.16206 -1.13142 0.572505 -3.20814 0.514427 1.52547 -9.00002 -2.8523 1.01 -1.56545 -0.497974 0.68919 -8.99185 -2.85875 1.06082 -0.679943 -1.17582 0.444246 -8.99108 -2.85871 1.06061 -3.47877 0.200518 0.597719 -13.5421 -4.92892 1.9294 -1.28208 -0.53155 0.44672 -13.5242 -4.95434 1.90779 -0.710288 -0.970167 0.4032 -13.5354 -4.95849 1.90938 -3.42483 -0.278904 -0.240415 -25.8819 -0.585215 -5.57757 -1.05787 -0.635999 0.156459 -13.4477 -5.28766 1.66882 -0.42815 -0.754232 0.287187 -13.4413 -5.28488 1.66812 1.4963 7.5744 -1.52136 14.0061 -1.75881 -0.891598 5.47506 -0.905672 0.485692 -100.797 -12.5255 31.3537 11.3069 -0.201091 0.618544 -19.8267 -30.6334 -28.4582 9.61414 -0.254739 3.48553 2.83603 53.1922 8.17662 -0.176263 -0.07068 1.26622 -5.95745 -1.19171 -10.4642 1.04683 -0.546484 1.82182 1.97637e-006 -2.44991e-005 1.74655e-006 0.993472 -0.621916 0.655506 -3.70255 -0.873557 -6.53345 2.64253 0.566363 2.4162 6.81819 -3.2576 -10.0101 1.39394 -0.635138 0.899356 6.50665 -2.34004 -2.49141 0.622395 -0.856016 0.402182 7.94334 -2.89868 -3.00979 3.20814 0.514427 1.52547 13.0544 -5.60202 -4.66994 1.56545 -0.497974 0.68919 13.0341 -5.60294 -4.7193 0.679943 -1.17582 0.444246 13.0349 -5.60331 -4.71976 3.47877 0.200518 0.597719 12.6226 -5.97427 -5.25605 1.28208 -0.53155 0.44672 12.6148 -6.00636 -5.23996 0.710288 -0.970167 0.4032 12.6148 -6.00635 -5.24035 3.42483 -0.278904 -0.240415 18.6833 -1.38618 3.95675 1.05787 -0.635999 0.156459 12.5155 -6.37273 -5.03553 0.42815 -0.754232 0.287187 12.5153 -6.37269 -5.03531 -4.17848 -1.02486 0.046356 -1.78725 -22.9237 19.1823 1.27155 -17.465 -0.237699 17.4812 60.9946 -19.8495 0.529163 -17.3815 -1.19582 -0.0644433 -35.0255 -11.4948 -0.711591 -4.4863 4.0596 0.966806 6.95722 -0.245663 4.17848 -1.02486 0.046356 3.03284 -33.4203 -8.26478 -1.27155 -17.465 -0.237699 -2.22692 41.4768 -12.4173 -0.529163 -17.3815 -1.19582 -9.86952 -6.87821 -11.7364 0.711591 -4.4863 4.0596 1.51513 -11.6928 0.746841 
0.922987 39.1266 -0.204162 5.05279 -8.19286 -8.0381 0 5.99393 0.287273 7.66753 8.77859 -6.6188 1.77636e-015 6.65865 -0.856112 16.5826 16.516 -14.6083 -3.55271e-015 8.65624 -1.42685 -7.68756 -7.78576 -21.4496 0 3.80999 -0.190247 -5.82725 -0.0575781 -15.8996 -1.4963 7.5744 -1.52136 -10.1747 -1.51205 -2.87075 -5.47506 -0.905672 0.485692 57.6783 -2.6689 3.27798 -11.3069 -0.201091 0.618544 14.2922 26.9255 4.45034 -9.61414 -0.254739 3.48553 -29.3289 51.2347 22.2648 0.176263 -0.07068 1.26622 2.91698 -2.65908 8.19547 -1.04683 -0.546484 1.82182 -0.883046 0.973772 -2.69652 -0.993472 -0.621916 0.655506 1.40995 -1.38182 4.08002 -2.64253 0.566363 2.4162 -4.50705 -2.14979 7.55319 -1.39394 -0.635138 0.899356 -2.59847 -0.701597 0.367205 -0.622395 -0.856016 0.402182 -4.16205 -1.13142 0.572496 -3.20814 0.514427 1.52547 -8.95192 -2.83608 1.00268 -1.56545 -0.497974 0.68919 -8.94461 -2.8433 1.05643 -0.679943 -1.17582 0.444246 -8.94348 -2.84315 1.05618 -3.47877 0.200518 0.597719 -13.4947 -4.909 1.92577 -1.28208 -0.53155 0.44672 -13.4778 -4.9366 1.90323 -0.710288 -0.970167 0.4032 -13.4891 -4.94079 1.90487 -3.42483 -0.278904 -0.240415 -25.8339 -0.564892 -5.57489 -1.05787 -0.635999 0.156459 -13.4014 -5.26882 1.6652 -0.42815 -0.754232 0.287187 -13.3951 -5.26611 1.66455 1.4963 7.5744 -1.52136 13.9012 -1.75779 -0.856916 5.47506 -0.905672 0.485692 -95.7742 -13.7812 34.7158 11.3069 -0.201091 0.618544 -19.5122 -27.3319 -28.487 9.61414 -0.254739 3.48553 1.3355 53.3829 10.681 -0.176263 -0.07068 1.26622 -5.95745 -1.19172 -10.4642 1.04683 -0.546484 1.82182 -6.82073e-006 -1.42018e-005 5.39134e-006 0.993472 -0.621916 0.655506 -3.70254 -0.873566 -6.53345 2.64253 0.566363 2.4162 6.80035 -3.25254 -10.0014 1.39394 -0.635138 0.899356 6.4887 -2.33315 -2.48484 0.622395 -0.856016 0.402182 7.92542 -2.89163 -3.0034 3.20814 0.514427 1.52547 13.0124 -5.58152 -4.65364 1.56545 -0.497974 0.68919 12.9914 -5.5826 -4.70571 0.679943 -1.17582 0.444246 12.9927 -5.58323 -4.70634 3.47877 0.200518 0.597719 12.5815 -5.9506 -5.24153 1.28208 -0.53155 0.44672 12.5735 -5.98452 -5.2247 0.710288 -0.970167 0.4032 12.5738 -5.98466 -5.22517 3.42483 -0.278904 -0.240415 18.6406 -1.36029 3.967 1.05787 -0.635999 0.156459 12.4748 -6.34994 -5.02115 0.42815 -0.754232 0.287187 12.4744 -6.34974 -5.02084 -4.17848 -1.02486 0.046356 -0.51632 -22.9566 18.866 1.27155 -17.465 -0.237699 19.3232 62.7299 -21.5067 0.529163 -17.3815 -1.19582 -0.254872 -36.0302 -11.4693 -0.711591 -4.4863 4.0596 0.962369 6.92375 -0.244218 4.17848 -1.02486 0.046356 4.05927 -34.7693 -8.54894 -1.27155 -17.465 -0.237699 -2.3251 45.3386 -12.8062 -0.529163 -17.3815 -1.19582 -9.66882 -8.4672 -11.9328 0.711591 -4.4863 4.0596 1.52979 -11.8 0.755307 
